<svg width="32" height="33" viewBox="0 0 32 33" fill="none" xmlns="http://www.w3.org/2000/svg">
<path d="M15.0596 4.39417H13.829C6.20426 4.39417 0 10.5973 0 18.2219C0 25.8467 6.20318 32.0497 13.829 32.0509C21.4537 32.0509 27.6568 25.8478 27.6568 18.2219V16.9913L15.0592 16.9918L15.0596 4.39417ZM25.1309 19.4522C24.5158 25.1438 19.6824 29.5893 13.8295 29.5893C7.5614 29.5893 2.46172 24.4903 2.46172 18.2221C2.46172 12.3697 6.90727 7.53663 12.5988 6.92113V19.4525L25.1309 19.4522Z" fill="#EB6F53"/>
<path d="M18.1713 0.000360016H16.9407V15.0596H31.9999V13.829C31.9999 6.20378 25.7967 0 18.1709 0L18.1713 0.000360016ZM19.4019 12.5979V2.52661C24.6896 3.0984 28.9014 7.31017 29.4732 12.5979H19.4019Z" fill="#EB6F53"/>
</svg>
