<svg width="34" height="38" viewBox="0 0 34 38" fill="none" xmlns="http://www.w3.org/2000/svg">
<path d="M27.6667 11.892C27.6667 9.06303 26.5429 6.34992 24.5425 4.34954C22.5421 2.34915 19.829 1.22534 17 1.22534C14.171 1.22534 11.4579 2.34915 9.45753 4.34954C7.45714 6.34992 6.33333 9.06303 6.33333 11.892C6.33333 24.3365 1 27.892 1 27.892H33C33 27.892 27.6667 24.3365 27.6667 11.892Z" stroke="#383838" stroke-width="2" stroke-linecap="round" stroke-linejoin="round"/>
<path d="M20.0754 35.0032C19.7629 35.542 19.3143 35.9892 18.7745 36.3001C18.2347 36.611 17.6228 36.7747 16.9999 36.7747C16.377 36.7747 15.765 36.611 15.2252 36.3001C14.6855 35.9892 14.2369 35.542 13.9243 35.0032" stroke="#383838" stroke-width="2" stroke-linecap="round" stroke-linejoin="round"/>
</svg>
