<svg width="61" height="61" viewBox="0 0 61 61" fill="none" xmlns="http://www.w3.org/2000/svg">
<circle cx="30.3105" cy="30.3108" r="30" fill="#383838"/>
<path d="M47.7422 30.7227C47.7422 32.6497 47.4883 34.362 46.9805 35.8594C46.4857 37.3438 45.8021 38.6393 44.9297 39.7461C44.0573 40.8529 43.0221 41.7839 41.8242 42.5391C40.6393 43.2943 39.3503 43.9062 37.957 44.375C36.5768 44.8438 35.125 45.1758 33.6016 45.3711C32.0911 45.5794 30.5677 45.6836 29.0312 45.6836C27.4557 45.6836 25.5807 45.6315 23.4062 45.5273C21.2448 45.4362 18.8229 45.2604 16.1406 45L17.625 37.832C18.5625 38.0794 19.5456 38.2943 20.5742 38.4766C21.6029 38.6458 22.6185 38.7826 23.6211 38.8867L22.3906 23.7695C21.5833 23.9258 20.763 24.0951 19.9297 24.2773C19.0964 24.4596 18.237 24.6615 17.3516 24.8828L16.1406 18.6328C17.612 18.1901 19.0638 17.832 20.4961 17.5586C21.9284 17.2852 23.2826 17.0833 24.5586 16.9531C25.8346 16.8099 27 16.7188 28.0547 16.6797C29.1224 16.6276 30.0208 16.6016 30.75 16.6016C33.2109 16.6016 35.4766 16.862 37.5469 17.3828C39.6302 17.8906 41.4271 18.7109 42.9375 19.8438C44.4479 20.9635 45.6263 22.4219 46.4727 24.2188C47.319 26.0026 47.7422 28.1706 47.7422 30.7227ZM31.9414 39.3555C34.0378 39.3555 35.8737 39.1016 37.4492 38.5938C39.0378 38.0859 40.3594 37.4349 41.4141 36.6406C42.4818 35.8333 43.2826 34.9414 43.8164 33.9648C44.3503 32.9753 44.6172 31.9987 44.6172 31.0352C44.6172 30.0846 44.4544 29.1276 44.1289 28.1641C43.8164 27.1875 43.2826 26.3021 42.5273 25.5078C41.7721 24.7135 40.7695 24.0495 39.5195 23.5156C38.2826 22.9818 36.7461 22.6758 34.9102 22.5977C34.3763 22.5716 33.7578 22.5716 33.0547 22.5977C32.4557 22.6237 31.7331 22.6628 30.8867 22.7148C30.0404 22.7669 29.0898 22.8516 28.0352 22.9688L27.3125 39.1992C27.9766 39.2513 28.5885 39.2904 29.1484 39.3164C29.7214 39.3294 30.2161 39.3424 30.6328 39.3555C31.1146 39.3685 31.5508 39.3685 31.9414 39.3555Z" fill="#EB6F53"/>
</svg>
