<svg width="327" height="263" viewBox="0 0 327 263" fill="none" xmlns="http://www.w3.org/2000/svg">
<path fill-rule="evenodd" clip-rule="evenodd" d="M82.4043 175.816H201.432C202.106 175.816 202.762 175.743 203.394 175.605C204.026 175.743 204.683 175.816 205.356 175.816H273.372C278.429 175.816 282.528 171.714 282.528 166.654C282.528 161.595 278.429 157.493 273.372 157.493H265.524C260.468 157.493 256.368 153.392 256.368 148.332C256.368 143.273 260.468 139.171 265.524 139.171H290.376C295.433 139.171 299.532 135.07 299.532 130.01C299.532 124.951 295.433 120.849 290.376 120.849H261.6C266.657 120.849 270.756 116.748 270.756 111.688C270.756 106.629 266.657 102.527 261.6 102.527H177.888C182.945 102.527 187.044 98.4258 187.044 93.3663C187.044 88.3069 182.945 84.2053 177.888 84.2053H103.332C98.2756 84.2053 94.1763 88.3069 94.1763 93.3663C94.1763 98.4258 98.2756 102.527 103.332 102.527H51.0123C45.9556 102.527 41.8563 106.629 41.8563 111.688C41.8563 116.748 45.9556 120.849 51.0123 120.849H83.7123C88.769 120.849 92.8683 124.951 92.8683 130.01C92.8683 135.07 88.769 139.171 83.7123 139.171H31.3923C26.3356 139.171 22.2363 143.273 22.2363 148.332C22.2363 153.392 26.3356 157.493 31.3923 157.493H82.4043C77.3476 157.493 73.2483 161.595 73.2483 166.654C73.2483 171.714 77.3476 175.816 82.4043 175.816ZM295.609 175.815C300.666 175.815 304.765 171.714 304.765 166.654C304.765 161.595 300.666 157.493 295.609 157.493C290.552 157.493 286.453 161.595 286.453 166.654C286.453 171.714 290.552 175.815 295.609 175.815Z" fill="#F7C8B9"/>
<path d="M76.9755 27.0037C65.4466 27.0037 56 36.4498 56 47.9792V197.427C56 207.505 64.2763 215.781 74.354 215.781H252.646C262.724 215.781 271 207.505 271 197.427V76.8179C271 66.7402 262.724 58.4639 252.646 58.4639H239.536V32.2444C239.536 29.4979 237.038 27 234.292 27L76.9755 27.0037ZM76.9755 37.4901H229.047V58.4656H76.9755C71.0738 58.4656 66.4891 53.8786 66.4891 47.9792C66.4891 42.0775 71.0761 37.4928 76.9755 37.4928V37.4901ZM66.4891 66.0841C69.5795 67.8834 73.1632 68.9518 76.9755 68.9518C136.032 68.8998 201.886 68.9518 252.643 68.9518C257.092 68.9518 260.509 72.3687 260.509 76.8172V108.279H184.473C177.302 108.279 171.363 114.218 171.363 121.389V152.851C171.363 160.022 177.302 165.961 184.473 165.961H260.509V197.423C260.509 201.871 257.092 205.288 252.643 205.288H74.3513C69.9027 205.288 66.4858 201.871 66.4858 197.423L66.4891 66.0841ZM184.474 118.768H260.51V155.474H184.474C182.93 155.474 181.853 154.395 181.853 152.853V121.391C181.853 119.847 182.932 118.766 184.474 118.77V118.768ZM210.693 126.633C204.902 126.633 200.207 131.328 200.207 137.12C200.207 142.911 204.902 147.606 210.693 147.606C216.485 147.606 221.18 142.911 221.18 137.12C221.18 131.328 216.485 126.633 210.693 126.633Z" fill="#EB6F53"/>
</svg>
