<svg width="41" height="30" viewBox="0 0 41 30" fill="none" xmlns="http://www.w3.org/2000/svg">
<path d="M14.5292 29.5C14.1931 29.5004 13.8603 29.4345 13.5497 29.3058C13.2392 29.1772 12.9572 28.9885 12.7198 28.7505L0.778252 16.81C0.298333 16.3301 0.0287061 15.6792 0.0286865 15.0006C0.0286669 14.3219 0.298257 13.671 0.778148 13.191C1.25804 12.7111 1.90892 12.4415 2.58761 12.4415C3.2663 12.4415 3.9172 12.7111 4.39712 13.1909L14.5292 23.3223L36.6029 1.24949C37.0828 0.7696 37.7337 0.5 38.4123 0.5C39.091 0.5 39.7419 0.769601 40.2218 1.24949C40.7017 1.72938 40.9713 2.38026 40.9713 3.05893C40.9713 3.7376 40.7017 4.38847 40.2218 4.86836L16.3387 28.7505C16.1013 28.9885 15.8193 29.1772 15.5087 29.3058C15.1982 29.4345 14.8653 29.5004 14.5292 29.5Z" fill="white"/>
</svg>
