<svg width="131" height="130" viewBox="0 0 131 130" fill="none" xmlns="http://www.w3.org/2000/svg">
<circle cx="65.8168" cy="65.3169" r="46.0554" fill="#EB6F53"/>
<mask id="path-2-inside-1_701_797" fill="white">
<path d="M30.9261 95.426C14.1222 76.3314 15.9793 47.2299 35.0739 30.426C54.1686 13.6222 83.2701 15.4792 100.074 34.5739C116.878 53.6686 115.021 82.77 95.9261 99.5739C76.8314 116.378 47.7299 114.521 30.9261 95.426ZM97.7899 36.5839C82.0962 18.7507 54.9171 17.0163 37.0839 32.7101C19.2507 48.4038 17.5163 75.5828 33.2101 93.4161C48.9038 111.249 76.0828 112.984 93.9161 97.2899C111.749 81.5961 113.484 54.4171 97.7899 36.5839Z"/>
</mask>
<path d="M30.9261 95.426C14.1222 76.3314 15.9793 47.2299 35.0739 30.426C54.1686 13.6222 83.2701 15.4792 100.074 34.5739C116.878 53.6686 115.021 82.77 95.9261 99.5739C76.8314 116.378 47.7299 114.521 30.9261 95.426ZM97.7899 36.5839C82.0962 18.7507 54.9171 17.0163 37.0839 32.7101C19.2507 48.4038 17.5163 75.5828 33.2101 93.4161C48.9038 111.249 76.0828 112.984 93.9161 97.2899C111.749 81.5961 113.484 54.4171 97.7899 36.5839Z" stroke="white" stroke-width="6" mask="url(#path-2-inside-1_701_797)"/>
<path d="M86.8991 63.1333C86.8991 65.5422 86.5817 67.6825 85.9469 69.5542C85.3284 71.4097 84.4739 73.0291 83.3834 74.4126C82.2929 75.7961 80.999 76.9598 79.5016 77.9038C78.0205 78.8478 76.4091 79.6128 74.6676 80.1987C72.9423 80.7847 71.1276 81.1997 69.2233 81.4438C67.3352 81.7043 65.431 81.8345 63.5104 81.8345C61.541 81.8345 59.1972 81.7694 56.4791 81.6392C53.7773 81.5252 50.75 81.3055 47.3971 80.98L49.2526 72.02C50.4244 72.3293 51.6533 72.5978 52.9391 72.8257C54.2249 73.0373 55.4944 73.2082 56.7477 73.3384L55.2096 54.4419C54.2005 54.6372 53.1751 54.8488 52.1334 55.0767C51.0918 55.3045 50.0175 55.5568 48.9108 55.8335L47.3971 48.021C49.2363 47.4676 51.0511 47.02 52.8414 46.6782C54.6318 46.3364 56.3245 46.0841 57.9196 45.9214C59.5146 45.7424 60.9713 45.6284 62.2897 45.5796C63.6243 45.5145 64.7474 45.4819 65.6588 45.4819C68.735 45.4819 71.567 45.8075 74.1549 46.4585C76.7591 47.0933 79.0052 48.1187 80.8932 49.5347C82.7812 50.9344 84.2542 52.7573 85.3121 55.0034C86.3701 57.2332 86.8991 59.9432 86.8991 63.1333ZM67.1481 73.9243C69.7685 73.9243 72.0634 73.6069 74.0328 72.9722C76.0185 72.3374 77.6705 71.5236 78.9889 70.5308C80.3235 69.5216 81.3245 68.4067 81.9918 67.186C82.6591 65.9491 82.9928 64.7284 82.9928 63.5239C82.9928 62.3358 82.7894 61.1395 82.3825 59.9351C81.9918 58.7144 81.3245 57.6076 80.3805 56.6147C79.4365 55.6219 78.1832 54.7918 76.6207 54.1245C75.0745 53.4572 73.1539 53.0747 70.859 52.9771C70.1917 52.9445 69.4186 52.9445 68.5397 52.9771C67.791 53.0096 66.8877 53.0584 65.8297 53.1235C64.7718 53.1886 63.5836 53.2944 62.2653 53.4409L61.3619 73.729C62.192 73.7941 62.957 73.8429 63.6569 73.8755C64.373 73.8918 64.9915 73.908 65.5123 73.9243C66.1145 73.9406 66.6598 73.9406 67.1481 73.9243Z" fill="#262B2C"/>
</svg>
