<svg width="35" height="45" viewBox="0 0 35 45" fill="none" xmlns="http://www.w3.org/2000/svg">
<path fill-rule="evenodd" clip-rule="evenodd" d="M13.8155 0C12.1103 0 10.6787 1.18222 10.2645 2.76307H3.68419C1.65889 2.76307 0 4.42224 0 6.44725V40.5259C0 42.5508 1.65889 44.21 3.68419 44.21H31.3158C33.3407 44.21 35 42.5509 35 40.5259V6.44725C35 4.42233 33.3408 2.76307 31.3158 2.76307H24.7352C24.3213 1.18222 22.8896 0 21.1841 0H13.8155ZM13.8155 1.84223H21.1839C22.2206 1.84223 23.0261 2.64777 23.0261 3.68409C23.0261 4.7205 22.2206 5.52633 21.1839 5.52633H13.8155C12.7791 5.52633 11.9737 4.72042 11.9737 3.68409C11.9737 2.64768 12.7792 1.84223 13.8155 1.84223ZM3.6839 4.6053H10.2642C10.6784 6.18615 12.1101 7.36837 13.8153 7.36837H21.1836C22.8892 7.36837 24.3208 6.18615 24.7347 4.6053H31.3153C32.3518 4.6053 33.1572 5.41084 33.1572 6.44716V40.5258C33.1572 41.5622 32.3517 42.3676 31.3153 42.3676H3.68372C2.64731 42.3676 1.84149 41.5621 1.84149 40.5258V6.44716C1.84149 5.41075 2.64739 4.6053 3.68372 4.6053H3.6839ZM8.28921 12.8948C7.78051 12.8948 7.36807 13.3072 7.36807 13.8156C7.36807 14.0599 7.46507 14.2944 7.63792 14.4668C7.81041 14.6397 8.04488 14.7367 8.28921 14.7367H26.7097C26.954 14.7367 27.1881 14.6397 27.361 14.4668C27.5338 14.2944 27.6308 14.0599 27.6308 13.8156C27.6308 13.5716 27.5338 13.3371 27.361 13.1643C27.1881 12.9918 26.954 12.8948 26.7097 12.8948H8.28921ZM8.28921 18.4208C7.78051 18.4208 7.36807 18.8333 7.36807 19.342C7.36807 19.5863 7.46507 19.8204 7.63792 19.9933C7.81041 20.1661 8.04488 20.2631 8.28921 20.2631H26.7097C26.954 20.2631 27.1881 20.1661 27.361 19.9933C27.5338 19.8204 27.6308 19.5863 27.6308 19.342C27.6308 19.0976 27.5338 18.8635 27.361 18.6907C27.1881 18.5178 26.954 18.4208 26.7097 18.4208H8.28921ZM8.28921 23.9473C7.78051 23.9473 7.36807 24.3597 7.36807 24.8684C7.36807 25.1127 7.46507 25.3468 7.63792 25.5197C7.81041 25.6922 8.04488 25.7892 8.28921 25.7892H26.7097C26.954 25.7892 27.1881 25.6922 27.361 25.5197C27.5338 25.3468 27.6308 25.1127 27.6308 24.8684C27.6308 24.6241 27.5338 24.3896 27.361 24.2171C27.1881 24.0442 26.954 23.9473 26.7097 23.9473H8.28921ZM8.28921 29.4733C7.78051 29.4733 7.36807 29.8857 7.36807 30.3944C7.36807 30.6388 7.46507 30.8732 7.63792 31.0457C7.81041 31.2186 8.04488 31.3156 8.28921 31.3156H26.7097C26.954 31.3156 27.1881 31.2186 27.361 31.0457C27.5338 30.8732 27.6308 30.6388 27.6308 30.3944C27.6308 30.1501 27.5338 29.916 27.361 29.7431C27.1881 29.5707 26.954 29.4733 26.7097 29.4733H8.28921ZM8.28921 34.9997C7.78051 34.9997 7.36807 35.4122 7.36807 35.9209C7.36807 36.4296 7.78051 36.842 8.28921 36.842H16.5787C17.0874 36.842 17.4995 36.4296 17.4995 35.9209C17.4995 35.4122 17.0874 34.9997 16.5787 34.9997H8.28921Z" fill="#F7C8B9"/>
</svg>
