<svg width="32" height="32" viewBox="0 0 32 32" fill="none" xmlns="http://www.w3.org/2000/svg">
<path d="M22.3999 14.3997H9.59999C9.0286 14.3997 8.50033 14.7047 8.21427 15.1997C7.92858 15.6948 7.92858 16.3045 8.21427 16.7995C8.50027 17.2946 9.02859 17.5996 9.59999 17.5996H22.3999C22.9716 17.5996 23.4998 17.2946 23.7856 16.7995C24.0716 16.3045 24.0716 15.6947 23.7856 15.1997C23.4999 14.7047 22.9716 14.3997 22.3999 14.3997Z" fill="#EB6F53"/>
<path d="M16 0C11.7567 0 7.6873 1.68565 4.68639 4.68639C1.68565 7.68681 0 11.7565 0 16C0 20.2436 1.68565 24.3135 4.68639 27.3136C7.68681 30.3143 11.7565 32 16 32C20.2436 32 24.3135 30.3143 27.3136 27.3136C30.3144 24.3132 32 20.2435 32 16C32 13.1915 31.2607 10.4325 29.8563 8.00028C28.4519 5.56777 26.4321 3.54798 23.9999 2.14385C21.5677 0.739483 18.8087 0.000163316 15.9998 0.000163316L16 0ZM16 28.8001C12.6053 28.8001 9.34952 27.4514 6.94944 25.051C4.54896 22.6505 3.20029 19.3947 3.20029 16.0004C3.20029 12.6061 4.54896 9.34992 6.94944 6.94984C9.34968 4.54936 12.6053 3.2007 16 3.2007C19.3946 3.2007 22.6505 4.54936 25.0506 6.94984C27.451 9.35008 28.7997 12.6058 28.7997 16.0004C28.7997 19.3951 27.451 22.6509 25.0506 25.051C22.6501 27.451 19.3943 28.8001 16 28.8001Z" fill="#EB6F53"/>
<path d="M18.0003 9.99924C18.0003 11.1037 17.1049 11.9994 16.0001 11.9994C14.8957 11.9994 14.0002 11.1037 14.0002 9.99924C14.0002 8.8948 14.8957 7.99939 16.0001 7.99939C17.1049 7.99939 18.0003 8.8948 18.0003 9.99924Z" fill="#EB6F53"/>
<path d="M18.0003 21.9997C18.0003 23.1041 17.1049 23.9995 16.0001 23.9995C14.8957 23.9995 14.0002 23.1041 14.0002 21.9997C14.0002 20.8949 14.8957 19.9995 16.0001 19.9995C17.1049 19.9995 18.0003 20.8949 18.0003 21.9997Z" fill="#EB6F53"/>
</svg>
