<svg width="32" height="32" viewBox="0 0 32 32" fill="none" xmlns="http://www.w3.org/2000/svg">
<path d="M28.3077 0H3.69228C1.65611 0 0 1.65611 0 3.69228V28.3077C0 30.3439 1.65611 32 3.69228 32H28.3077C30.3439 32 32 30.3439 32 28.3077V3.69228C32 1.65611 30.3436 0 28.3077 0ZM2.46146 28.3079V3.69244C2.46146 3.01316 3.01371 2.46154 3.69236 2.46154H28.3078C28.9864 2.46154 29.5387 3.01315 29.5387 3.69244V27.7981L26.052 24.3114C26.6965 23.3385 27.0769 22.1751 27.0769 20.9232C27.0769 17.53 24.316 14.7694 20.9232 14.7694C17.53 14.7694 14.7694 17.5304 14.7694 20.9232C14.7694 24.3163 17.5304 27.0769 20.9232 27.0769C22.1752 27.0769 23.3385 26.6965 24.3114 26.0517L27.7981 29.5384H3.69244C3.01381 29.5384 2.46154 28.9868 2.46154 28.3078L2.46146 28.3079ZM20.9228 24.6156C18.8867 24.6156 17.2306 22.9595 17.2306 20.9233C17.2306 18.8872 18.8867 17.2311 20.9228 17.2311C22.959 17.2311 24.6151 18.8872 24.6151 20.9233C24.6151 22.9595 22.959 24.6156 20.9228 24.6156Z" fill="#EB6F53"/>
<path d="M5.53861 12.3073H26.4616C26.8014 12.3073 27.0769 12.0318 27.0769 11.692V10.4611C27.0769 10.1213 26.8014 9.84583 26.4616 9.84583H5.53861C5.19882 9.84583 4.92334 10.1213 4.92334 10.4611V11.692C4.92334 12.0318 5.19882 12.3073 5.53861 12.3073Z" fill="#EB6F53"/>
<path d="M5.53861 7.38491H26.4616C26.8014 7.38491 27.0769 7.10943 27.0769 6.76963V5.53874C27.0769 5.19862 26.8014 4.92346 26.4616 4.92346H5.53861C5.19882 4.92346 4.92334 5.19862 4.92334 5.53874V6.76963C4.92334 7.10943 5.19882 7.38491 5.53861 7.38491Z" fill="#EB6F53"/>
<path d="M11.6919 14.7689H5.53812C5.19833 14.7689 4.92285 15.0444 4.92285 15.3842V16.6151C4.92285 16.9549 5.19833 17.2304 5.53812 17.2304H11.6919C12.0317 17.2304 12.3071 16.9549 12.3071 16.6151V15.3842C12.3071 15.0444 12.0317 14.7689 11.6919 14.7689Z" fill="#EB6F53"/>
<path d="M11.6919 19.6921H5.53812C5.19833 19.6921 4.92285 19.9676 4.92285 20.3077V21.5386C4.92285 21.8781 5.19833 22.1539 5.53812 22.1539H11.6919C12.0317 22.1539 12.3071 21.8784 12.3071 21.5386V20.3077C12.3071 19.9676 12.0317 19.6921 11.6919 19.6921Z" fill="#EB6F53"/>
<path d="M11.6919 24.6155H5.53812C5.19833 24.6155 4.92285 24.891 4.92285 25.2308V26.4616C4.92285 26.8014 5.19833 27.0769 5.53812 27.0769H11.6919C12.0317 27.0769 12.3071 26.8014 12.3071 26.4616V25.2308C12.3071 24.891 12.0317 24.6155 11.6919 24.6155Z" fill="#EB6F53"/>
</svg>
