<svg width="24" height="24" viewBox="0 0 24 24" fill="none" xmlns="http://www.w3.org/2000/svg">
<path d="M23.63 21.8436C24.1233 22.3369 24.1233 23.1366 23.63 23.63C23.1367 24.1234 22.337 24.1233 21.8436 23.63L15.6647 17.4511C15.4194 17.2057 14.9838 17.1718 14.7051 17.3625C14.7051 17.3625 14.5348 17.4948 14.1681 17.7043C12.7844 18.4956 11.182 18.9472 9.47387 18.9472C4.24156 18.9472 0 14.7057 0 9.47388C0 4.24157 4.24156 0 9.47387 0C14.7056 0 18.9472 4.24157 18.9472 9.47388C18.9472 11.1936 18.4893 12.8058 17.6881 14.1962C17.4828 14.5525 17.3682 14.6979 17.3682 14.6979C17.1682 14.9865 17.2046 15.4183 17.4511 15.6648L23.63 21.8436ZM9.47368 16.4211C13.3105 16.4211 16.421 13.3106 16.421 9.47378C16.421 5.63696 13.3105 2.52644 9.47368 2.52644C5.63687 2.52644 2.52635 5.63696 2.52635 9.47378C2.52635 13.3106 5.63687 16.4211 9.47368 16.4211Z" fill="#C7C7C7"/>
</svg>
