<svg width="184" height="24" viewBox="0 0 184 24" fill="none" xmlns="http://www.w3.org/2000/svg">
<path d="M12 2L15.09 8.26L22 9.27L17 14.14L18.18 21.02L12 17.77L5.82 21.02L7 14.14L2 9.27L8.91 8.26L12 2Z" stroke="#EB6F53" stroke-width="2" stroke-linecap="round" stroke-linejoin="round"/>
<path d="M52 2L55.09 8.26L62 9.27L57 14.14L58.18 21.02L52 17.77L45.82 21.02L47 14.14L42 9.27L48.91 8.26L52 2Z" stroke="#EB6F53" stroke-width="2" stroke-linecap="round" stroke-linejoin="round"/>
<path d="M92 2L95.09 8.26L102 9.27L97 14.14L98.18 21.02L92 17.77L85.82 21.02L87 14.14L82 9.27L88.91 8.26L92 2Z" stroke="#EB6F53" stroke-width="2" stroke-linecap="round" stroke-linejoin="round"/>
<path d="M132 2L135.09 8.26L142 9.27L137 14.14L138.18 21.02L132 17.77L125.82 21.02L127 14.14L122 9.27L128.91 8.26L132 2Z" stroke="#EB6F53" stroke-width="2" stroke-linecap="round" stroke-linejoin="round"/>
<path d="M172 2L175.09 8.26L182 9.27L177 14.14L178.18 21.02L172 17.77L165.82 21.02L167 14.14L162 9.27L168.91 8.26L172 2Z" stroke="#EB6F53" stroke-width="2" stroke-linecap="round" stroke-linejoin="round"/>
</svg>
