<svg width="32" height="33" viewBox="0 0 32 33" fill="none" xmlns="http://www.w3.org/2000/svg">
<path d="M27.05 0.000139742H4.94962C3.63742 0.0019743 2.37935 0.523901 1.45156 1.4517C0.52374 2.37952 0.00176118 3.63756 0 4.94975V17.3684C0.00504507 18.4623 0.437548 19.5112 1.20535 20.2904C1.97312 21.0697 3.01561 21.5177 4.10942 21.5389L7.11903 21.5838V27.8461C7.11995 28.9514 7.55978 30.0113 8.34176 30.7934C9.12327 31.5753 10.1837 32.0152 11.289 32.0161H27.83C28.9353 32.0152 29.9957 31.5753 30.7773 30.7934C31.5593 30.0114 31.9991 28.9514 32 27.8461V4.94961C31.9986 3.63742 31.4767 2.37935 30.5489 1.45156C29.6211 0.523738 28.3631 0.00176118 27.0509 0L27.05 0.000139742ZM7.11938 18.8036L4.15203 18.7587C3.39299 18.7449 2.78442 18.1276 2.78066 17.3685V4.94989C2.78066 4.17479 3.19435 3.45888 3.86535 3.0713C4.53634 2.68375 5.36329 2.68375 6.03477 3.0713C6.70575 3.45886 7.11945 4.17479 7.11945 4.94989L7.11938 18.8036ZM29.2198 27.8462C29.2194 28.6135 28.597 29.2354 27.8297 29.2359H11.2899C10.5221 29.2355 9.90016 28.6135 9.89969 27.8462V4.94975C9.90015 4.19805 9.72908 3.45592 9.3984 2.78033H27.0501C27.6252 2.78125 28.1765 3.01011 28.5834 3.41647C28.9897 3.82328 29.2186 4.37458 29.2195 4.94975L29.2198 27.8462ZM25.8639 6.95162V6.95116C25.8639 7.31991 25.7176 7.67352 25.4571 7.93449C25.1962 8.195 24.8426 8.3413 24.4738 8.3413H17.3727C16.605 8.3413 15.9826 7.71892 15.9826 6.95114C15.9826 6.18336 16.605 5.56098 17.3727 5.56098H24.4738C24.8426 5.56098 25.1962 5.70729 25.4571 5.96779C25.7176 6.22877 25.8639 6.58237 25.8639 6.95112V6.95162ZM25.8639 12.5121V12.5117C25.8639 12.8804 25.7176 13.234 25.4571 13.4945C25.1962 13.7555 24.8426 13.9018 24.4738 13.9018H14.5924C13.8247 13.9018 13.2023 13.2794 13.2023 12.5117C13.2023 11.7439 13.8247 11.1215 14.5924 11.1215H24.4738C24.8426 11.121 25.1962 11.2678 25.4571 11.5283C25.7176 11.7893 25.8639 12.1429 25.8639 12.5116V12.5121ZM25.8639 18.0726V18.0717C25.8639 18.4405 25.7176 18.7945 25.4571 19.055C25.1962 19.316 24.8426 19.4623 24.4738 19.4619H14.5924C13.8247 19.4619 13.2023 18.8395 13.2023 18.0717C13.2023 17.3039 13.8247 16.6815 14.5924 16.6815H24.4738C24.8426 16.6815 25.1962 16.8278 25.4571 17.0888C25.7176 17.3493 25.8639 17.7029 25.8639 18.0717V18.0726Z" fill="#EB6F53"/>
</svg>
