<svg width="40" height="35" viewBox="0 0 40 35" fill="none" xmlns="http://www.w3.org/2000/svg">
<path d="M21.7104 21.7456C21.7104 23.0608 22.7753 24.1257 24.0905 24.1257C25.4057 24.1257 26.4706 23.0608 26.4706 21.7456C26.4706 20.4304 25.4057 19.3655 24.0905 19.3655C22.7753 19.3655 21.7104 20.4304 21.7104 21.7456ZM24.7855 21.7456C24.7855 22.1308 24.4704 22.4405 24.0905 22.4405C23.7053 22.4405 23.3956 22.1254 23.3956 21.7456C23.3956 21.3604 23.7107 21.0506 24.0905 21.0506C24.4753 21.0457 24.7855 21.3604 24.7855 21.7456Z" fill="#F7C8B9"/>
<path d="M4.60548 6.03005H34.246C34.7112 6.03005 35.0861 5.65516 35.0861 5.18995C35.0861 4.72475 34.7112 4.34985 34.246 4.34985L4.60548 4.35027C4.14027 4.35027 3.76538 4.72516 3.76538 5.19037C3.76538 5.65516 4.13532 6.03005 4.60548 6.03005Z" fill="#F7C8B9"/>
<path d="M40 5.18015C40 2.44004 37.7651 0.210083 35.015 0.210083H4.98495C3.69487 0.210083 2.40975 0.740042 1.45996 1.67004C0.529946 2.5951 0 3.87529 0 5.18015V30.0199C0 32.76 2.23492 34.99 4.98495 34.99H35.015C36.3501 34.99 37.6001 34.4699 38.54 33.53C39.4799 32.5901 40 31.3401 40 30.0199V13.465C40 13.4502 39.9951 13.4349 39.9951 13.4151V5.205C39.9951 5.1951 40 5.18974 40 5.17984V5.18015ZM2.64478 2.87017C3.27496 2.2503 4.12986 1.8952 4.98485 1.8952H35.0149C36.83 1.8952 38.3102 3.36012 38.3152 5.17029C38.3152 5.17524 38.3102 5.18019 38.3102 5.19009V9.76011C37.4301 8.97527 36.2852 8.48492 35.015 8.48492L4.98486 8.48533C3.16487 8.48533 1.68465 7.0051 1.68465 5.18512C1.68465 4.32027 2.03479 3.47525 2.64477 2.87017H2.64478ZM38.3149 25.0356H24.1356C22.3254 25.0356 20.8507 23.5554 20.8507 21.7354C20.8507 20.8503 21.1905 20.0305 21.8256 19.4102C22.4307 18.7903 23.2505 18.4501 24.1356 18.4501H38.316L38.3149 25.0356ZM38.3149 16.7657H24.1356C22.7907 16.7657 21.5456 17.2858 20.6354 18.2158C19.6905 19.1408 19.1705 20.3909 19.1705 21.7309C19.1705 24.4809 21.4004 26.7158 24.1405 26.7158H38.321V30.016C38.321 30.8862 37.9758 31.7111 37.3559 32.3359C36.7311 32.9608 35.9059 33.301 35.0208 33.301H4.98542C3.16543 33.301 1.6852 31.8262 1.6852 30.0161V8.88533C2.56531 9.67017 3.71519 10.1655 4.98542 10.1655H35.0155C36.8207 10.1655 38.2856 11.6205 38.3108 13.4153V13.4652C38.3108 13.4751 38.3157 13.4801 38.3157 13.4904L38.3149 16.7657Z" fill="#F7C8B9"/>
</svg>
